<svg style="display: none;"><symbol viewBox="0 0 18 18" id="shape-bandsintown"><title>bandsintown</title> <g> <rect x="1.479" y="0.961" fill="#00B4B3" width="15.041" height="16.078"/> <g> <rect x="6.313" y="5.833" fill="#FFFFFF" width="2.438" height="3.417"/> <rect x="9.251" y="5.833" fill="#FFFFFF" width="2.438" height="3.417"/> <rect x="12.167" y="2.916" fill="#FFFFFF" width="2.438" height="6.334"/> <polygon fill="#FFFFFF" points="12.563,9.749 12.167,9.749 6.313,9.749 6.313,12.187 12.167,12.187 12.167,12.667 5.834,12.667 
			5.834,2.916 3.396,2.916 3.396,15.104 5.626,15.104 5.834,15.104 12.167,15.104 12.396,15.104 14.604,15.104 14.604,9.749 		"/> </g> </g> </symbol><symbol viewBox="0 0 11.617 23.101" id="shape-facebook"><title>facebook</title> <path d="M2.516,4.458c0-0.144,0.02-0.455,0.06-0.931C2.619,3.05,2.799,2.551,3.122,2.027c0.32-0.522,0.839-0.991,1.561-1.406
	C5.402,0.208,6.441,0,7.797,0h3.82v4.163H8.82c-0.277,0-0.535,0.104-0.768,0.309c-0.231,0.205-0.35,0.4-0.35,0.581v2.59h3.914
	c-0.041,0.507-0.086,1-0.138,1.476l-0.155,1.258c-0.062,0.425-0.125,0.819-0.187,1.182H7.674v11.542H2.516V11.558H0V7.643h2.516
	V4.458z"/>                </symbol><symbol viewBox="0 0 100 100" id="shape-instagram"><title>instagram</title> <path fill-rule="evenodd" clip-rule="evenodd" d="M13.804,1.303h72.393c6.875,0,12.5,5.09,12.5,12.5v72.394
	c0,7.411-5.625,12.5-12.5,12.5H13.804c-6.877,0-12.501-5.09-12.501-12.5V13.803C1.303,6.393,6.927,1.303,13.804,1.303L13.804,1.303z
	 M72.251,12.124c-2.412,0-4.384,1.972-4.384,4.385v10.495c0,2.412,1.972,4.385,4.384,4.385h11.008c2.411,0,4.384-1.973,4.384-4.385
	V16.509c0-2.413-1.973-4.385-4.384-4.385H72.251L72.251,12.124z M87.69,42.49h-8.573c0.811,2.648,1.25,5.453,1.25,8.356
	c0,16.2-13.555,29.332-30.274,29.332c-16.718,0-30.272-13.132-30.272-29.332c0-2.904,0.438-5.708,1.25-8.356h-8.945v41.141
	c0,2.129,1.742,3.872,3.872,3.872h67.822c2.129,0,3.872-1.742,3.872-3.872V42.49L87.69,42.49z M50.092,30.836
	c-10.802,0-19.56,8.485-19.56,18.953c0,10.468,8.758,18.953,19.56,18.953c10.803,0,19.562-8.485,19.562-18.953
	C69.654,39.321,60.896,30.836,50.092,30.836z"/> </symbol><symbol viewBox="0 0 110 40" id="shape-itunes-preorder"><title>itunes-preorder</title> <g> <path fill="#A6A6A6" d="M105.27,40H4.729C2.122,40,0,37.883,0,35.277V4.726C0,2.12,2.122,0,4.729,0h100.54
		c2.605,0,4.73,2.12,4.73,4.726v30.551C110,37.883,107.876,40,105.27,40L105.27,40z"/> <path d="M109,35.277c0,2.117-1.609,3.723-3.73,3.723H4.729C2.61,39,1,37.395,1,35.277V4.726C1,2.61,2.61,1,4.729,1H105.27
		c2.121,0,3.73,1.61,3.73,3.726V35.277z"/> <g> <g> <path fill="#FFFFFF" d="M30.128,19.784c-0.029-3.223,2.639-4.791,2.761-4.864c-1.511-2.203-3.853-2.504-4.676-2.528
				c-1.967-0.207-3.875,1.177-4.877,1.177c-1.022,0-2.565-1.157-4.228-1.123c-2.14,0.033-4.142,1.272-5.24,3.196
				c-2.266,3.923-0.576,9.688,1.595,12.859c1.086,1.553,2.355,3.287,4.016,3.226c1.625-0.067,2.232-1.036,4.193-1.036
				c1.943,0,2.513,1.036,4.207,0.997c1.744-0.028,2.842-1.56,3.89-3.127c1.255-1.78,1.759-3.533,1.779-3.623
				C33.507,24.924,30.161,23.647,30.128,19.784z"/> <path fill="#FFFFFF" d="M26.928,10.306c0.874-1.093,1.472-2.58,1.306-4.089c-1.265,0.056-2.847,0.875-3.758,1.944
				c-0.806,0.942-1.526,2.486-1.34,3.938C24.557,12.205,26.016,11.382,26.928,10.306z"/> </g> </g> <g> <path fill="#FFFFFF" d="M47.036,19.039c0,0.382-0.125,0.691-0.375,0.929c-0.25,0.236-0.572,0.354-0.968,0.354
			c-0.355,0-0.654-0.121-0.898-0.365c-0.243-0.243-0.365-0.549-0.365-0.918c0-0.368,0.125-0.671,0.375-0.908
			c0.25-0.236,0.56-0.355,0.929-0.355c0.368,0,0.678,0.119,0.928,0.355C46.911,18.368,47.036,18.67,47.036,19.039z M46.799,31.498
			h-2.132v-9.596h2.132V31.498z"/> <path fill="#FFFFFF" d="M58.29,19.987h-3.811v11.511h-2.133V19.987h-3.791V18.19h9.734V19.987z"/> <path fill="#FFFFFF" d="M67.155,31.498H65.28l-0.119-1.461h-0.039c-0.671,1.119-1.685,1.678-3.041,1.678
			c-0.947,0-1.704-0.297-2.271-0.889c-0.671-0.725-1.007-1.816-1.007-3.277v-5.647h2.133v5.292c0,1.844,0.632,2.764,1.896,2.764
			c0.947,0,1.605-0.461,1.975-1.381c0.092-0.238,0.138-0.508,0.138-0.811v-5.864h2.133v6.831
			C67.077,29.641,67.103,30.562,67.155,31.498z"/> <path fill="#FFFFFF" d="M78.39,31.498h-2.133v-5.496c0-1.693-0.645-2.541-1.935-2.541c-0.632,0-1.146,0.234-1.54,0.699
			c-0.395,0.467-0.593,1.016-0.593,1.645v5.693h-2.132v-6.852c0-0.842-0.026-1.758-0.079-2.745h1.876l0.099,1.5h0.059
			c0.25-0.467,0.619-0.854,1.106-1.158c0.579-0.36,1.224-0.54,1.935-0.54c0.896,0,1.639,0.289,2.231,0.868
			c0.736,0.711,1.105,1.771,1.105,3.18V31.498z"/> <path fill="#FFFFFF" d="M89.269,26.246c0,0.381-0.026,0.703-0.079,0.967h-6.396c0.025,0.947,0.335,1.672,0.928,2.172
			c0.539,0.447,1.237,0.672,2.093,0.672c0.947,0,1.81-0.152,2.587-0.455l0.335,1.48c-0.908,0.396-1.981,0.594-3.218,0.594
			c-1.488,0-2.656-0.438-3.505-1.314c-0.849-0.875-1.273-2.049-1.273-3.523c0-1.447,0.395-2.652,1.185-3.613
			c0.829-1.027,1.948-1.54,3.356-1.54c1.382,0,2.429,0.512,3.14,1.54C88.985,24.041,89.269,25.049,89.269,26.246z M87.235,25.693
			c0.013-0.633-0.126-1.178-0.415-1.639c-0.368-0.594-0.935-0.889-1.698-0.889c-0.697,0-1.264,0.289-1.697,0.869
			c-0.355,0.459-0.566,1.014-0.632,1.658H87.235z"/> <path fill="#FFFFFF" d="M97.541,28.74c0,0.893-0.329,1.609-0.987,2.146c-0.658,0.539-1.566,0.809-2.725,0.809
			c-1.093,0-2.021-0.217-2.784-0.652l0.454-1.578c0.737,0.447,1.521,0.67,2.35,0.67c1.092,0,1.639-0.4,1.639-1.203
			c0-0.355-0.118-0.648-0.355-0.879s-0.658-0.457-1.264-0.682c-1.711-0.633-2.566-1.553-2.566-2.764c0-0.83,0.315-1.521,0.947-2.074
			c0.632-0.552,1.468-0.829,2.508-0.829c0.947,0,1.757,0.193,2.429,0.581l-0.454,1.531c-0.619-0.367-1.271-0.553-1.955-0.553
			c-0.447,0-0.797,0.105-1.046,0.316c-0.251,0.209-0.376,0.479-0.376,0.807s0.132,0.598,0.396,0.809
			c0.224,0.197,0.658,0.412,1.303,0.648C96.711,26.475,97.541,27.439,97.541,28.74z"/> </g> <g> <g> <path fill="#FFFFFF" d="M48.67,8.925c0,0.577-0.171,1.039-0.512,1.386c-0.44,0.453-1.082,0.679-1.925,0.679
				c-0.248,0-0.44-0.015-0.577-0.046v2.427h-1.004V7.186c0.479-0.087,1.025-0.13,1.641-0.13c0.795,0,1.395,0.171,1.799,0.512
				C48.477,7.902,48.67,8.355,48.67,8.925z M47.665,8.972c0-0.366-0.117-0.646-0.352-0.842s-0.562-0.293-0.981-0.293
				c-0.277,0-0.503,0.019-0.676,0.056v2.25c0.142,0.037,0.336,0.056,0.583,0.056c0.444,0,0.793-0.108,1.047-0.325
				C47.539,9.657,47.665,9.356,47.665,8.972z"/> <path fill="#FFFFFF" d="M52.212,9.734c-0.1-0.019-0.204-0.028-0.316-0.028c-0.354,0-0.626,0.133-0.818,0.4
				c-0.167,0.235-0.251,0.533-0.251,0.893v2.372h-1.004l0.009-3.097c0-0.521-0.013-0.995-0.037-1.423h0.874l0.037,0.865h0.028
				C50.839,9.418,51.006,9.18,51.235,9c0.224-0.161,0.465-0.242,0.726-0.242c0.093,0,0.177,0.006,0.251,0.019V9.734z"/> <path fill="#FFFFFF" d="M56.881,10.897c0,0.18-0.013,0.332-0.037,0.456H53.83c0.013,0.446,0.158,0.788,0.438,1.023
				c0.254,0.211,0.583,0.316,0.985,0.316c0.446,0,0.853-0.071,1.219-0.214l0.158,0.697c-0.428,0.186-0.934,0.279-1.517,0.279
				c-0.7,0-1.25-0.206-1.65-0.618c-0.399-0.412-0.6-0.966-0.6-1.66c0-0.682,0.186-1.249,0.558-1.702
				c0.391-0.484,0.918-0.726,1.581-0.726c0.651,0,1.145,0.242,1.479,0.726C56.747,9.858,56.881,10.333,56.881,10.897z
				 M55.923,10.636c0.006-0.297-0.059-0.555-0.195-0.771c-0.174-0.279-0.44-0.419-0.8-0.419c-0.329,0-0.595,0.137-0.8,0.409
				c-0.167,0.217-0.267,0.478-0.298,0.781H55.923z"/> <path fill="#FFFFFF" d="M59.968,11.231h-2.315v-0.707h2.315V11.231z"/> <path fill="#FFFFFF" d="M65.195,11.074c0,0.694-0.198,1.265-0.596,1.711c-0.415,0.459-0.967,0.688-1.655,0.688
				c-0.663,0-1.191-0.22-1.585-0.661c-0.395-0.44-0.591-0.995-0.591-1.665c0-0.701,0.203-1.274,0.609-1.721
				c0.405-0.446,0.953-0.669,1.641-0.669c0.664,0,1.197,0.22,1.6,0.66C65.003,9.846,65.195,10.398,65.195,11.074z M64.153,11.106
				c0-0.417-0.09-0.774-0.27-1.072c-0.211-0.361-0.512-0.541-0.902-0.541c-0.402,0-0.71,0.18-0.92,0.541
				c-0.181,0.298-0.271,0.662-0.271,1.091c0,0.417,0.09,0.774,0.271,1.073c0.217,0.361,0.521,0.541,0.911,0.541
				c0.384,0,0.685-0.184,0.902-0.55C64.061,11.883,64.153,11.522,64.153,11.106z"/> <path fill="#FFFFFF" d="M68.636,9.734c-0.1-0.019-0.204-0.028-0.316-0.028c-0.354,0-0.626,0.133-0.818,0.4
				c-0.167,0.235-0.251,0.533-0.251,0.893v2.372h-1.004l0.009-3.097c0-0.521-0.013-0.995-0.037-1.423h0.874l0.037,0.865h0.028
				C67.263,9.418,67.43,9.18,67.659,9c0.224-0.161,0.465-0.242,0.726-0.242c0.093,0,0.177,0.006,0.251,0.019V9.734z"/> <path fill="#FFFFFF" d="M73.603,13.371h-0.894l-0.046-0.726h-0.028c-0.285,0.552-0.769,0.828-1.45,0.828
				c-0.546,0-0.999-0.214-1.358-0.642s-0.539-0.982-0.539-1.665c0-0.731,0.195-1.324,0.586-1.776
				c0.378-0.421,0.843-0.632,1.395-0.632c0.607,0,1.032,0.205,1.274,0.614h0.019V6.777h1.005v5.375
				C73.565,12.593,73.577,12.999,73.603,13.371z M72.561,11.464v-0.753c0-0.13-0.01-0.236-0.028-0.316
				c-0.056-0.242-0.177-0.445-0.364-0.609c-0.187-0.165-0.41-0.247-0.672-0.247c-0.374,0-0.668,0.149-0.883,0.446
				c-0.215,0.298-0.322,0.679-0.322,1.144c0,0.446,0.104,0.809,0.309,1.088c0.218,0.298,0.511,0.446,0.878,0.446
				c0.329,0,0.594-0.124,0.794-0.372C72.464,12.062,72.561,11.787,72.561,11.464z"/> <path fill="#FFFFFF" d="M78.735,10.897c0,0.18-0.013,0.332-0.037,0.456h-3.014c0.013,0.446,0.158,0.788,0.438,1.023
				c0.254,0.211,0.583,0.316,0.985,0.316c0.446,0,0.853-0.071,1.219-0.214l0.158,0.697c-0.428,0.186-0.934,0.279-1.517,0.279
				c-0.7,0-1.25-0.206-1.65-0.618c-0.399-0.412-0.6-0.966-0.6-1.66c0-0.682,0.186-1.249,0.558-1.702
				c0.391-0.484,0.918-0.726,1.581-0.726c0.651,0,1.145,0.242,1.479,0.726C78.602,9.858,78.735,10.333,78.735,10.897z
				 M77.777,10.636c0.006-0.297-0.059-0.555-0.195-0.771c-0.174-0.279-0.44-0.419-0.8-0.419c-0.329,0-0.595,0.137-0.8,0.409
				c-0.167,0.217-0.267,0.478-0.298,0.781H77.777z"/> <path fill="#FFFFFF" d="M82.25,9.734c-0.1-0.019-0.204-0.028-0.316-0.028c-0.354,0-0.626,0.133-0.818,0.4
				c-0.167,0.235-0.251,0.533-0.251,0.893v2.372H79.86l0.009-3.097c0-0.521-0.013-0.995-0.037-1.423h0.874l0.037,0.865h0.028
				C80.877,9.418,81.044,9.18,81.273,9c0.224-0.161,0.465-0.242,0.726-0.242c0.093,0,0.177,0.006,0.251,0.019V9.734z"/> <path fill="#FFFFFF" d="M89.708,11.074c0,0.694-0.198,1.265-0.596,1.711c-0.415,0.459-0.967,0.688-1.655,0.688
				c-0.663,0-1.191-0.22-1.585-0.661c-0.395-0.44-0.591-0.995-0.591-1.665c0-0.701,0.203-1.274,0.609-1.721
				c0.405-0.446,0.953-0.669,1.641-0.669c0.664,0,1.197,0.22,1.6,0.66C89.516,9.846,89.708,10.398,89.708,11.074z M88.666,11.106
				c0-0.417-0.09-0.774-0.27-1.072c-0.211-0.361-0.512-0.541-0.902-0.541c-0.402,0-0.71,0.18-0.92,0.541
				c-0.181,0.298-0.271,0.662-0.271,1.091c0,0.417,0.09,0.774,0.271,1.073c0.217,0.361,0.521,0.541,0.911,0.541
				c0.384,0,0.685-0.184,0.902-0.55C88.573,11.883,88.666,11.522,88.666,11.106z"/> <path fill="#FFFFFF" d="M94.776,13.371h-1.004v-2.588c0-0.798-0.304-1.197-0.911-1.197c-0.298,0-0.54,0.11-0.726,0.33
				c-0.187,0.219-0.279,0.478-0.279,0.774v2.681h-1.004v-3.227c0-0.397-0.013-0.828-0.038-1.293h0.884l0.047,0.707h0.027
				c0.118-0.219,0.292-0.401,0.521-0.545c0.272-0.169,0.576-0.254,0.911-0.254c0.422,0,0.771,0.136,1.051,0.409
				c0.348,0.335,0.521,0.834,0.521,1.497V13.371z"/> </g> </g> </g> </symbol><symbol viewBox="0 0 44 15" id="shape-itunes"><title>itunes</title> <g> <path fill="#FFFFFF" d="M43.664,13.225c0,0.795-0.643,1.438-1.438,1.438H1.774c-0.795,0-1.44-0.643-1.44-1.438V1.771
		c0-0.793,0.645-1.438,1.44-1.438h40.453c0.795,0,1.438,0.645,1.438,1.438L43.664,13.225L43.664,13.225z"/> <path fill="#A6A6A6" d="M42.227,14.996H1.774C0.796,14.996,0,14.202,0,13.225V1.772C0,0.795,0.796,0,1.774,0h40.453
		C43.203,0,44,0.795,44,1.772v11.453C44,14.202,43.203,14.996,42.227,14.996L42.227,14.996z"/> <path d="M43.664,13.225c0,0.795-0.643,1.438-1.438,1.438H1.774c-0.795,0-1.44-0.643-1.44-1.438V1.771
		c0-0.793,0.645-1.438,1.44-1.438h40.453c0.795,0,1.438,0.645,1.438,1.438L43.664,13.225L43.664,13.225z"/> <g> <path fill="#FFFFFF" d="M8.762,3.946c0,0.213-0.07,0.385-0.209,0.517c-0.14,0.132-0.319,0.198-0.539,0.198
			c-0.198,0-0.365-0.068-0.501-0.204C7.377,4.322,7.31,4.151,7.31,3.946c0-0.205,0.069-0.374,0.209-0.506
			C7.657,3.308,7.83,3.242,8.035,3.242S8.413,3.308,8.553,3.44C8.691,3.572,8.762,3.741,8.762,3.946z M8.629,10.887H7.441V5.541
			h1.188V10.887z"/> <path fill="#FFFFFF" d="M15.043,4.474h-2.134v6.413h-1.188V4.474H9.608V3.473h5.435V4.474z"/> <path fill="#FFFFFF" d="M19.971,10.887h-1.045l-0.066-0.812h-0.021c-0.374,0.624-0.939,0.935-1.694,0.935
			c-0.528,0-0.95-0.164-1.265-0.493c-0.374-0.404-0.562-1.014-0.562-1.826V5.541h1.188v2.948c0,1.026,0.352,1.54,1.056,1.54
			c0.528,0,0.895-0.258,1.1-0.771c0.052-0.133,0.077-0.282,0.077-0.45V5.541h1.188v3.807C19.927,9.854,19.941,10.367,19.971,10.887z
			"/> <path fill="#FFFFFF" d="M26.24,10.887h-1.188V7.818c0-0.946-0.358-1.419-1.077-1.419c-0.353,0-0.639,0.13-0.857,0.39
			c-0.221,0.261-0.33,0.567-0.33,0.918v3.179h-1.188V7.07c0-0.469-0.015-0.979-0.044-1.529H22.6l0.057,0.825h0.031
			c0.141-0.257,0.346-0.469,0.617-0.638c0.321-0.198,0.682-0.297,1.077-0.297c0.499,0,0.913,0.162,1.243,0.484
			c0.41,0.396,0.616,0.986,0.616,1.771L26.24,10.887L26.24,10.887z"/> <path fill="#FFFFFF" d="M32.29,7.961c0,0.212-0.017,0.393-0.045,0.539h-3.563c0.016,0.527,0.188,0.932,0.518,1.211
			c0.301,0.248,0.689,0.373,1.166,0.373c0.527,0,1.009-0.084,1.441-0.253l0.187,0.825c-0.507,0.22-1.104,0.33-1.793,0.33
			c-0.828,0-1.479-0.244-1.952-0.731s-0.709-1.142-0.709-1.964c0-0.807,0.22-1.478,0.659-2.013c0.462-0.572,1.086-0.858,1.87-0.858
			c0.771,0,1.354,0.286,1.748,0.858C32.132,6.733,32.29,7.294,32.29,7.961z M31.156,7.653c0.008-0.352-0.069-0.656-0.23-0.913
			c-0.205-0.33-0.521-0.495-0.945-0.495c-0.39,0-0.705,0.162-0.946,0.484c-0.197,0.257-0.315,0.565-0.353,0.924H31.156z"/> <path fill="#FFFFFF" d="M36.898,9.348c0,0.498-0.184,0.898-0.551,1.199c-0.365,0.301-0.873,0.45-1.518,0.45
			c-0.609,0-1.126-0.121-1.551-0.362l0.253-0.881c0.409,0.25,0.847,0.375,1.309,0.375c0.608,0,0.913-0.225,0.913-0.672
			c0-0.197-0.066-0.361-0.197-0.489c-0.133-0.128-0.367-0.255-0.705-0.38c-0.953-0.352-1.43-0.865-1.43-1.54
			c0-0.462,0.176-0.847,0.528-1.155c0.352-0.308,0.817-0.462,1.396-0.462c0.528,0,0.979,0.106,1.354,0.319l-0.253,0.847
			c-0.346-0.205-0.709-0.308-1.09-0.308c-0.25,0-0.443,0.059-0.584,0.176c-0.139,0.117-0.209,0.268-0.209,0.451
			c0,0.184,0.074,0.334,0.222,0.451c0.124,0.11,0.366,0.231,0.726,0.363C36.438,8.082,36.898,8.621,36.898,9.348z"/> </g> </g> </symbol><symbol viewBox="0 0 98.229 98.228" id="shape-reverbnation"><title>reverbnation</title> <g> <path d="M18.371,96.006c1.368-4.229,2.663-8.253,3.968-12.272c2.453-7.554,4.895-15.111,7.388-22.652
		c0.29-0.873,0.051-1.279-0.639-1.775c-9.41-6.773-18.799-13.577-28.193-20.373C0.589,38.712,0.285,38.489,0,38.004
		c0.853,0,1.704,0,2.556,0c11.063,0,22.128-0.016,33.192,0.025c1.103,0.003,1.572-0.318,1.916-1.391
		c3.577-11.165,7.215-22.31,10.839-33.459c0.082-0.252,0.191-0.495,0.372-0.957c0.191,0.486,0.333,0.805,0.442,1.135
		c3.676,11.092,7.366,22.179,10.996,33.287c0.348,1.065,0.827,1.387,1.929,1.384C73.764,38,85.288,38.029,96.811,38.042
		c0.375,0,0.746,0,1.418,0c-0.526,0.417-0.828,0.674-1.147,0.906c-9.353,6.788-18.694,13.59-28.079,20.334
		c-0.943,0.679-1.127,1.217-0.762,2.322c3.645,11.022,7.221,22.065,10.816,33.104c0.103,0.314,0.191,0.633,0.371,1.214
		c-0.582-0.404-0.949-0.651-1.306-0.91c-9.28-6.756-18.569-13.503-27.827-20.29c-0.872-0.639-1.448-0.691-2.36-0.027
		c-9.528,6.934-19.096,13.816-28.654,20.713C19.046,95.578,18.797,95.727,18.371,96.006z"/> </g>                </symbol><symbol viewBox="0 0 512 512" id="shape-soundcloud"><title>soundcloud</title> <path d="M445.98 257.102c-9.043 0-17.674 1.76-25.532 4.928-5.253-57.179-55.145-102.030-116-102.030-14.893 0-29.341 2.815-42.159 7.582-4.98 1.851-6.289 3.76-6.289 7.458v201.357c0 3.883 3.12 7.117 7.062 7.498 0.168 0.017 181.768 0.105 182.945 0.105 36.452 0 65.993-28.408 65.993-63.447s-29.567-63.451-66.020-63.451zM200 384h16l8-112.11-8-111.89h-16l-8 111.89zM152 384h-16l-8-81.375 8-78.625h16l8 80zM72 384h16l8-64-8-64h-16l-8 64zM8 352h16l8-32-8-32h-16l-8 32z"/> </symbol><symbol viewBox="0 0 16.002 16" id="shape-twitter"><title>twitter</title> <path d="M16.001,3.038c-0.589,0.261-1.221,0.438-1.885,0.517c0.678-0.406,1.197-1.05,1.443-1.815
	c-0.635,0.376-1.338,0.649-2.086,0.797C12.875,1.898,12.022,1.5,11.078,1.5c-1.813,0-3.283,1.47-3.283,3.282
	c0,0.257,0.029,0.508,0.085,0.748C5.152,5.393,2.733,4.086,1.114,2.1C0.831,2.584,0.67,3.148,0.67,3.75
	c0,1.139,0.58,2.144,1.46,2.732C1.592,6.464,1.086,6.316,0.643,6.07v0.041c0,1.59,1.132,2.917,2.633,3.219
	C3.001,9.404,2.711,9.445,2.411,9.445c-0.212,0-0.417-0.021-0.618-0.06c0.418,1.304,1.63,2.253,3.066,2.28
	c-1.123,0.88-2.539,1.404-4.077,1.404c-0.265,0-0.526-0.016-0.783-0.045C1.452,13.956,3.177,14.5,5.031,14.5
	c6.038,0,9.34-5.002,9.34-9.34L14.36,4.735C15.004,4.274,15.562,3.696,16.001,3.038z"/> </symbol><symbol viewBox="0 0 16 16" id="shape-youtube"><title>youtube</title> <path fill="#FFFFFF" d="M13 2h-10c-1.65 0-3 1.35-3 3v6c0 1.65 1.35 3 3 3h10c1.65 0 3-1.35 3-3v-6c0-1.65-1.35-3-3-3zM6 12v-8l5 4-5 4z"/> </symbol></svg>