<svg style="display: none;"><symbol id="shape-amazon"><title>amazon</title>  <g transform="translate(151.616,-642.7961)" id="svgstore6c266626608d2bc78af7a289740e9fc3layer1"> <g transform="translate(7.081691,7.081144)" id="svgstore6c266626608d2bc78af7a289740e9fc3g1967"> <path d="m 222.02642,784.73404 c -34.99948,25.79739 -85.72909,39.56123 -129.406339,39.56123 -61.24255,0 -116.37656,-22.65135 -158.08757,-60.32496 -3.2771,-2.96252 -0.34083,-6.9999 3.59171,-4.69283 45.01431,26.19064 100.67269,41.94697 158.16623,41.94697 38.774689,0 81.429499,-8.02237 120.649899,-24.67006 5.92501,-2.51683 10.87999,3.88009 5.08607,8.17965" id="svgstore6c266626608d2bc78af7a289740e9fc3path8" style="fill:#ff9900;fill-opacity:1;fill-rule:evenodd;stroke:none"/> <path d="m 236.57678,768.08635 c -4.45688,-5.71527 -29.57261,-2.70033 -40.84585,-1.36327 -3.43442,0.41947 -3.95874,-2.56925 -0.86517,-4.71905 20.00346,-14.07844 52.82696,-10.01483 56.65462,-5.2958 3.82764,4.74526 -0.99624,37.64741 -19.79373,53.35128 -2.88385,2.41195 -5.63662,1.12734 -4.35198,-2.07113 4.2209,-10.53917 13.68519,-34.16054 9.20211,-39.90203" id="svgstore6c266626608d2bc78af7a289740e9fc3path10" style="fill:#ff9900;fill-opacity:1;fill-rule:evenodd;stroke:none"/> <path d="m 196.51744,662.61598 0,-13.68519 c 0,-2.07113 1.57301,-3.46062 3.46062,-3.46062 l 61.26875,0 c 1.96628,0 3.53929,1.41571 3.53929,3.46062 l 0,11.71893 c -0.0262,1.96626 -1.67788,4.53551 -4.61418,8.59912 l -31.74859,45.32893 c 11.79759,-0.28837 24.25059,1.46814 34.94706,7.49802 2.41195,1.36327 3.06737,3.35575 3.25089,5.32203 l 0,14.60278 c 0,1.99248 -2.20222,4.32576 -4.5093,3.1198 -18.84992,-9.88376 -43.887,-10.95865 -64.72939,0.10487 -2.12356,1.15354 -4.35199,-1.15354 -4.35199,-3.14602 l 0,-13.86871 c 0,-2.22843 0.0262,-6.02989 2.25463,-9.41186 l 36.78224,-52.74829 -32.01076,0 c -1.96626,0 -3.53927,-1.38948 -3.53927,-3.43441" id="svgstore6c266626608d2bc78af7a289740e9fc3path12" style="fill:#221f1f;fill-rule:evenodd;stroke:none"/> <path d="m -26.981169,748.00424 -18.64017,0 c -1.78273,-0.13107 -3.19845,-1.46813 -3.32954,-3.17224 l 0,-95.66524 c 0,-1.91383 1.59923,-3.43442 3.59171,-3.43442 l 17.38176,0 c 1.80898,0.0786 3.25089,1.46814 3.38199,3.19845 l 0,12.50545 0.34082,0 c 4.53551,-12.08598 13.05597,-17.7226 24.53896043,-17.7226 11.66648957,0 18.95476957,5.63662 24.19813957,17.7226 4.5093,-12.08598 14.76008,-17.7226 25.74495,-17.7226 7.81262,0 16.35931,3.22467 21.57646,10.46052 5.89879,8.04857 4.69281,19.74128 4.69281,29.99208 l -0.02621,60.37739 c 0,1.91383 -1.59923,3.46061 -3.59171,3.46061 l -18.61397,0 c -1.86138,-0.13107 -3.35574,-1.62543 -3.35574,-3.46061 l 0,-50.70338 c 0,-4.03739 0.36702,-14.10466 -0.52434,-17.93233 -1.38949,-6.42311 -5.55797,-8.23209 -10.95865,-8.23209 -4.5093,0 -9.22833,3.01494 -11.14216,7.83885 -1.91383,4.8239 -1.73031,12.89867 -1.73031,18.32557 l 0,50.70338 c 0,1.91383 -1.59923,3.46061 -3.59171,3.46061 l -18.6139496,0 c -1.88761,-0.13107 -3.35575997,-1.62543 -3.35575997,-3.46061 l -0.02621,-50.70338 c 0,-10.67025 1.75650997,-26.37415 -11.48298043,-26.37415 -13.39682,0 -12.87248,15.31063 -12.87248,26.37415 l 0,50.70338 c 0,1.91383 -1.59923,3.46061 -3.59171,3.46061" id="svgstore6c266626608d2bc78af7a289740e9fc3path14" style="fill:#221f1f;fill-rule:evenodd;stroke:none"/> <path d="m 317.53439,643.71364 c 27.65877,0 42.62858,23.75246 42.62858,53.95427 0,29.17934 -16.54284,52.32881 -42.62858,52.32881 -27.16066,0 -41.94697,-23.75246 -41.94697,-53.35127 0,-29.78234 14.96983,-52.93181 41.94697,-52.93181 m 0.15729,19.53156 c -13.73761,0 -14.60278,18.71881 -14.60278,30.38532 0,11.69271 -0.18352,36.65114 14.44549,36.65114 14.44548,0 15.12712,-20.13452 15.12712,-32.40403 0,-8.07477 -0.34082,-17.72257 -2.779,-25.3779 -2.09735,-6.65906 -6.26581,-9.25453 -12.19083,-9.25453" id="svgstore6c266626608d2bc78af7a289740e9fc3path16" style="fill:#221f1f;fill-rule:evenodd;stroke:none"/> <path d="m 396.02762,748.00424 -18.56152,0 c -1.86141,-0.13107 -3.35577,-1.62543 -3.35577,-3.46061 l -0.0262,-95.69149 c 0.1573,-1.75653 1.7041,-3.1198 3.59171,-3.1198 l 17.27691,0 c 1.62543,0.0786 2.96249,1.17976 3.32954,2.67412 l 0,14.62899 0.3408,0 c 5.21717,-13.0822 12.53165,-19.32181 25.40412,-19.32181 8.36317,0 16.51662,3.01494 21.75999,11.27324 4.87633,7.65532 4.87633,20.5278 4.87633,29.78233 l 0,60.22011 c -0.20973,1.67786 -1.75653,3.01492 -3.59169,3.01492 l -18.69262,0 c -1.70411,-0.13107 -3.11982,-1.38948 -3.30332,-3.01492 l 0,-51.96179 c 0,-10.46052 1.20597,-25.77117 -11.66651,-25.77117 -4.5355,0 -8.70399,3.04117 -10.77512,7.65532 -2.62167,5.84637 -2.96249,11.66651 -2.96249,18.11585 l 0,51.5161 c -0.0262,1.91383 -1.65166,3.46061 -3.64414,3.46061" id="svgstore6c266626608d2bc78af7a289740e9fc3path18" style="fill:#221f1f;fill-rule:evenodd;stroke:none"/> <path d="m 462.33002,740.40137 c 0,-4.82391 4.11603,-8.70399 9.17588,-8.70399 5.05985,0 9.17589,3.88008 9.17589,8.70399 0,4.79767 -4.11604,8.73021 -9.17589,8.73021 -5.05985,0 -9.17588,-3.93254 -9.17588,-8.73021" id="svgstore6c266626608d2bc78af7a289740e9fc3path20" style="fill:#221f1f;fill-rule:evenodd;stroke:none"/> <path d="m 659.82149,748.03047 c -1.94004,-0.0787 -3.46062,-1.57301 -3.46062,-3.46062 l 0,-95.66526 c 0.10487,-1.70411 1.54679,-3.04117 3.32954,-3.14602 l 6.84259,0 c 1.88762,0 3.40819,1.36326 3.56549,3.14602 l 0,13.94736 c 4.87634,-11.06352 13.94737,-19.71508 25.40413,-19.71508 l 0.70785,0 0.68164,0 c 12.16461,0 21.05212,8.96616 24.35545,21.99593 5.16471,-12.87247 14.86495,-21.99593 27.65877,-21.99593 l 0.65542,0 0.76029,0 c 9.04481,0 17.7488,5.82014 22.2581,14.68143 4.35199,8.46804 4.19469,19.74128 4.19469,29.20556 l -0.0262,57.54599 c 0.0262,1.83516 -1.46814,3.32952 -3.32953,3.46062 l -8.17966,0 c -1.78275,-0.0787 -3.22467,-1.33706 -3.46062,-2.98872 l 0,-58.01789 c 0,-6.84258 0.34082,-14.10466 -2.43817,-20.34427 -2.83142,-6.37069 -8.25831,-10.35565 -14.07844,-10.64402 -6.50178,0.31459 -12.47922,5.05985 -16.35932,11.45676 -5.03363,8.25829 -4.85011,15.70387 -4.85011,25.35168 l 0,52.25016 c -0.23595,1.57301 -1.62545,2.8052 -3.32954,2.9363 l -8.12722,0 c -1.94005,-0.0787 -3.48684,-1.57301 -3.48684,-3.46062 l -0.0524,-61.37365 c 0,-5.63662 -0.34082,-12.26948 -2.93628,-17.32933 -3.01494,-5.76769 -8.41561,-9.54293 -14.07845,-9.8313 -5.87257,0.34082 -11.79758,4.8239 -15.31063,10.04105 -4.53552,6.65906 -5.40067,14.89115 -5.40067,23.3592 l 0,55.13403 c 0,1.83516 -1.49436,3.32952 -3.35576,3.46062 l -8.15344,0" id="svgstore6c266626608d2bc78af7a289740e9fc3path22" style="fill:#221f1f;fill-rule:evenodd;stroke:none"/> <path d="m 603.66501,750.02295 c -26.45279,0 -38.30281,-26.97714 -38.30281,-53.95427 0,-28.36663 13.92115,-52.93181 40.55746,-52.93181 l 0.68164,0 0.73407,0 c 25.90224,0 38.80093,26.16442 38.80093,53.14155 0,28.57635 -14.28818,53.74453 -41.08179,53.74453 l -0.68164,0 -0.70786,0 m 1.94005,-13.0822 c 8.70399,-0.2884 15.5728,-5.68907 19.63642,-14.68143 3.64414,-8.0748 4.35199,-17.32935 4.35199,-26.19064 0,-9.64781 -1.04867,-19.71506 -5.58419,-27.97338 -4.06361,-7.20963 -11.03729,-11.79756 -18.43044,-12.05973 -8.23209,0.28837 -15.59902,5.87256 -19.29559,14.47168 -3.32954,7.4456 -4.352,17.32933 -4.352,25.56143 0,9.25455 1.20597,19.95102 5.03363,27.9996 3.7228,7.6291 10.87999,12.58407 18.64018,12.87247" id="svgstore6c266626608d2bc78af7a289740e9fc3path24" style="fill:#221f1f;fill-rule:evenodd;stroke:none"/> <path d="m 521.0033,736.52128 c 11.87624,-0.36705 18.11584,-9.88375 20.68509,-22.20568 0.52434,-1.54679 1.7041,-2.72655 3.43441,-2.72655 l 7.83884,-0.0262 c 1.86139,0.0786 3.56549,1.49436 3.40819,3.22469 -3.61793,20.99967 -16.28066,35.23543 -34.31785,35.23543 l -0.73407,0 -0.68164,0 c -26.26929,0 -37.59495,-26.37415 -37.59495,-53.14156 0,-26.55764 11.48298,-53.74452 37.75225,-53.74452 l 0.70785,0 0.70786,0 c 18.24692,0 31.25048,14.05223 34.0819,35.05193 0,1.57301 -1.46815,2.93627 -3.19846,3.11979 l -8.20587,-0.10487 c -1.73031,-0.23595 -2.85764,-1.70408 -3.11981,-3.35574 -1.96626,-11.71894 -8.70399,-21.05212 -19.9248,-21.41917 -17.85368,0.57677 -22.93973,22.54648 -22.93973,39.45634 0,16.28067 4.24713,40.05936 22.10079,40.63613" id="svgstore6c266626608d2bc78af7a289740e9fc3path26" style="fill:#221f1f;fill-rule:evenodd;stroke:none"/> <path d="m 147.67545,702.30829 c 0,7.26206 0.18352,13.31815 -3.48684,19.7675 -2.9625,5.24338 -7.68153,8.46805 -12.89868,8.46805 -7.1572,0 -11.35189,-5.45312 -11.35189,-13.50169 0,-15.8874 14.23574,-18.77125 27.73741,-18.77125 l 0,4.03739 m 18.79748,45.43378 c -1.23218,1.10111 -3.01494,1.17976 -4.40443,0.4457 -6.18718,-5.1385 -7.3145,-7.52423 -10.69647,-12.42678 -10.22457,10.4343 -17.48665,13.55409 -30.72615,13.55409 -15.70389,0 -27.894719,-9.67401 -27.894719,-29.04824 0,-15.12713 8.179669,-25.43035 19.872379,-30.46398 10.1197,-4.45688 24.25056,-5.24337 35.05191,-6.47556 l 0,-2.41195 c 0,-4.43066 0.34082,-9.67403 -2.28086,-13.50167 -2.25465,-3.43442 -6.60666,-4.85013 -10.46052,-4.85013 -7.10478,0 -13.42302,3.64414 -14.96983,11.19459 -0.3146,1.67789 -1.54678,3.32955 -3.25089,3.4082 l -18.063399,-1.94006 c -1.52058,-0.3408 -3.22467,-1.57301 -2.77898,-3.90629 4.142259,-21.91728 23.962199,-28.52394 41.684769,-28.52394 9.07104,0 20.92105,2.41195 28.07825,9.28076 9.07102,8.46804 8.20587,19.7675 8.20587,32.06321 l 0,29.04826 c 0,8.73022 3.61792,12.55786 7.02611,17.27691 1.17977,1.67786 1.44194,3.69656 -0.0787,4.95497 -3.80144,3.17225 -10.56539,9.07104 -14.28818,12.37436 l -0.0262,-0.0525" id="svgstore6c266626608d2bc78af7a289740e9fc3path28" style="fill:#221f1f;fill-rule:evenodd;stroke:none"/> <path d="m -96.691739,702.30829 c 0,7.26206 0.1835,13.31815 -3.486841,19.7675 -2.96252,5.24338 -7.65533,8.46805 -12.8987,8.46805 -7.1572,0 -11.32567,-5.45312 -11.32567,-13.50169 0,-15.8874 14.23574,-18.77125 27.711211,-18.77125 l 0,4.03739 m 18.79747,45.43378 c -1.23219,1.10111 -3.01495,1.17976 -4.40444,0.4457 -6.18716,-5.1385 -7.28828,-7.52423 -10.69647,-12.42678 -10.224571,10.4343 -17.460401,13.55409 -30.726141,13.55409 -15.67768,0 -27.89471,-9.67401 -27.89471,-29.04824 0,-15.12713 8.20587,-25.43035 19.87236,-30.46398 10.1197,-4.45688 24.25058,-5.24337 35.051931,-6.47556 l 0,-2.41195 c 0,-4.43066 0.34082,-9.67403 -2.25465,-13.50167 -2.280881,-3.43442 -6.632861,-4.85013 -10.460531,-4.85013 -7.10475,0 -13.44924,3.64414 -14.99603,11.19459 -0.31461,1.67789 -1.5468,3.32955 -3.22467,3.4082 l -18.08962,-1.94006 c -1.52058,-0.3408 -3.19846,-1.57301 -2.77899,-3.90629 4.16848,-21.91728 23.96219,-28.52394 41.68479,-28.52394 9.071011,0 20.921021,2.41195 28.078221,9.28076 9.07104,8.46804 8.20587,19.7675 8.20587,32.06321 l 0,29.04826 c 0,8.73022 3.61794,12.55786 7.02613,17.27691 1.20597,1.67786 1.46814,3.69656 -0.05244,4.95497 -3.80144,3.17225 -10.56538,9.07104 -14.28819,12.37436 l -0.05242,-0.0525" id="svgstore6c266626608d2bc78af7a289740e9fc3path30" style="fill:#221f1f;fill-rule:evenodd;stroke:none"/> <path d="m 796.12286,646.78101 c 4.48308,0 8.20587,3.61794 8.20587,8.17967 0,4.45685 -3.67035,8.20587 -8.20587,8.20587 -4.50929,0 -8.17965,-3.67037 -8.17965,-8.20587 0,-4.61418 3.72279,-8.17967 8.17965,-8.17967 m 0.0262,-1.57301 c -5.24337,0 -9.77888,4.24713 -9.77888,9.77888 0,5.42689 4.45686,9.75268 9.77888,9.75268 5.34823,0 9.75266,-4.37821 9.75266,-9.75268 0,-5.53175 -4.48307,-9.77888 -9.75266,-9.77888 m -3.67036,15.2582 2.09735,0 0,-4.40443 1.94005,0 c 0.76028,0 0.97002,0.31462 1.12732,0.94381 0,0.1573 0.36704,2.9363 0.39325,3.46062 l 2.3333,0 c -0.28838,-0.52432 -0.44569,-2.01868 -0.55055,-2.91007 -0.20974,-1.38949 -0.31461,-2.35951 -1.80896,-2.46438 0.76028,-0.26217 2.07113,-0.68164 2.07113,-2.70032 0,-2.88387 -2.54304,-2.88387 -3.85388,-2.88387 l -3.74901,0 0,10.95864 m 2.04492,-9.20211 1.75652,0 c 0.57677,0 1.62545,0 1.62545,1.49436 0,0.57677 -0.26217,1.54681 -1.67788,1.54681 l -1.70409,0 0,-3.04117" id="svgstore6c266626608d2bc78af7a289740e9fc3path32" style="fill:#221f1f;fill-rule:evenodd;stroke:none"/> </g> </g> </symbol><symbol viewBox="0 0 512 512" id="shape-amazon_a"><title>amazon_a</title><g id="svgstorea44ce7a67b924ce4e5bd42a75e4c3b1d7935ec95c421cee6d86eb22ecd1149e3"><path style="display: inline; fill-rule: evenodd; clip-rule: evenodd; fill: #010101;" d="M293.596,233.97
		c0,26.322,0.627,48.264-12.651,71.65c-10.724,19.022-27.791,30.698-46.749,30.698c-25.905,0-41.069-19.73-41.069-48.979
		c0-57.525,51.607-67.983,100.469-67.983V233.97z M361.701,398.655c-4.48,4.005-10.934,4.283-15.971,1.567
		c-22.446-18.64-26.462-27.263-38.718-45.009c-37.07,37.767-63.335,49.094-111.356,49.094c-56.871,0-101.09-35.085-101.09-105.269
		c0-54.833,29.688-92.112,72.023-110.394c36.647-16.086,87.836-19.004,127.006-23.397v-8.774c0-16.074,1.253-35.091-8.218-48.979
		c-8.217-12.43-24.013-17.542-37.905-17.542c-25.76,0-48.67,13.196-54.288,40.552c-1.178,6.094-5.612,12.11-11.745,12.425
		l-65.459-7.092c-5.524-1.241-11.676-5.682-10.074-14.119c15.036-79.421,86.762-103.418,151.037-103.418
		c32.857,0,75.823,8.774,101.729,33.63c32.857,30.71,29.7,71.65,29.7,116.248v105.223c0,31.65,13.138,45.543,25.487,62.615
		c4.317,6.128,5.292,13.44-0.209,17.92c-13.8,11.571-38.324,32.869-51.811,44.87L361.701,398.655z M454.261,417.377
		c-62.721,26.602-130.884,39.461-192.884,39.461c-91.933,0-180.924-25.209-252.882-67.096c-6.302-3.668-10.968,2.797-5.733,7.532
		c66.702,60.236,154.845,96.425,252.732,96.425c69.846,0,150.949-21.971,206.903-63.254
		C471.646,423.598,463.72,413.361,454.261,417.377z M470.962,467.655c-2.043,5.106,2.345,7.172,6.964,3.296
		c30.014-25.116,37.767-77.716,31.615-85.317c-6.093-7.532-58.565-14.021-90.599,8.461c-4.921,3.481-4.062,8.24,1.394,7.59
		c18.036-2.17,58.182-6.986,65.343,2.183C492.828,413.036,477.717,450.779,470.962,467.655z"/></g></symbol><symbol viewBox="0 0 18 18" id="shape-bandsintown"><title>bandsintown</title> <g> <rect x="1.479" y="0.961" fill="#00B4B3" width="15.041" height="16.078"/> <g> <rect x="6.313" y="5.833" fill="#FFFFFF" width="2.438" height="3.417"/> <rect x="9.251" y="5.833" fill="#FFFFFF" width="2.438" height="3.417"/> <rect x="12.167" y="2.916" fill="#FFFFFF" width="2.438" height="6.334"/> <polygon fill="#FFFFFF" points="12.563,9.749 12.167,9.749 6.313,9.749 6.313,12.187 12.167,12.187 12.167,12.667 5.834,12.667 
			5.834,2.916 3.396,2.916 3.396,15.104 5.626,15.104 5.834,15.104 12.167,15.104 12.396,15.104 14.604,15.104 14.604,9.749 		"/> </g> </g> </symbol><symbol viewBox="0 0 11.617 23.101" id="shape-facebook"><title>facebook</title> <path d="M2.516,4.458c0-0.144,0.02-0.455,0.06-0.931C2.619,3.05,2.799,2.551,3.122,2.027c0.32-0.522,0.839-0.991,1.561-1.406
	C5.402,0.208,6.441,0,7.797,0h3.82v4.163H8.82c-0.277,0-0.535,0.104-0.768,0.309c-0.231,0.205-0.35,0.4-0.35,0.581v2.59h3.914
	c-0.041,0.507-0.086,1-0.138,1.476l-0.155,1.258c-0.062,0.425-0.125,0.819-0.187,1.182H7.674v11.542H2.516V11.558H0V7.643h2.516
	V4.458z"/>                </symbol><symbol viewBox="0 0 100 100" id="shape-instagram"><title>instagram</title> <path fill-rule="evenodd" clip-rule="evenodd" d="M13.804,1.303h72.393c6.875,0,12.5,5.09,12.5,12.5v72.394
	c0,7.411-5.625,12.5-12.5,12.5H13.804c-6.877,0-12.501-5.09-12.501-12.5V13.803C1.303,6.393,6.927,1.303,13.804,1.303L13.804,1.303z
	 M72.251,12.124c-2.412,0-4.384,1.972-4.384,4.385v10.495c0,2.412,1.972,4.385,4.384,4.385h11.008c2.411,0,4.384-1.973,4.384-4.385
	V16.509c0-2.413-1.973-4.385-4.384-4.385H72.251L72.251,12.124z M87.69,42.49h-8.573c0.811,2.648,1.25,5.453,1.25,8.356
	c0,16.2-13.555,29.332-30.274,29.332c-16.718,0-30.272-13.132-30.272-29.332c0-2.904,0.438-5.708,1.25-8.356h-8.945v41.141
	c0,2.129,1.742,3.872,3.872,3.872h67.822c2.129,0,3.872-1.742,3.872-3.872V42.49L87.69,42.49z M50.092,30.836
	c-10.802,0-19.56,8.485-19.56,18.953c0,10.468,8.758,18.953,19.56,18.953c10.803,0,19.562-8.485,19.562-18.953
	C69.654,39.321,60.896,30.836,50.092,30.836z"/> </symbol><symbol viewBox="0 0 110 40" id="shape-itunes-preorder"><title>itunes-preorder</title> <g> <path fill="#A6A6A6" d="M105.27,40H4.729C2.122,40,0,37.883,0,35.277V4.726C0,2.12,2.122,0,4.729,0h100.54
		c2.605,0,4.73,2.12,4.73,4.726v30.551C110,37.883,107.876,40,105.27,40L105.27,40z"/> <path d="M109,35.277c0,2.117-1.609,3.723-3.73,3.723H4.729C2.61,39,1,37.395,1,35.277V4.726C1,2.61,2.61,1,4.729,1H105.27
		c2.121,0,3.73,1.61,3.73,3.726V35.277z"/> <g> <g> <path fill="#FFFFFF" d="M30.128,19.784c-0.029-3.223,2.639-4.791,2.761-4.864c-1.511-2.203-3.853-2.504-4.676-2.528
				c-1.967-0.207-3.875,1.177-4.877,1.177c-1.022,0-2.565-1.157-4.228-1.123c-2.14,0.033-4.142,1.272-5.24,3.196
				c-2.266,3.923-0.576,9.688,1.595,12.859c1.086,1.553,2.355,3.287,4.016,3.226c1.625-0.067,2.232-1.036,4.193-1.036
				c1.943,0,2.513,1.036,4.207,0.997c1.744-0.028,2.842-1.56,3.89-3.127c1.255-1.78,1.759-3.533,1.779-3.623
				C33.507,24.924,30.161,23.647,30.128,19.784z"/> <path fill="#FFFFFF" d="M26.928,10.306c0.874-1.093,1.472-2.58,1.306-4.089c-1.265,0.056-2.847,0.875-3.758,1.944
				c-0.806,0.942-1.526,2.486-1.34,3.938C24.557,12.205,26.016,11.382,26.928,10.306z"/> </g> </g> <g> <path fill="#FFFFFF" d="M47.036,19.039c0,0.382-0.125,0.691-0.375,0.929c-0.25,0.236-0.572,0.354-0.968,0.354
			c-0.355,0-0.654-0.121-0.898-0.365c-0.243-0.243-0.365-0.549-0.365-0.918c0-0.368,0.125-0.671,0.375-0.908
			c0.25-0.236,0.56-0.355,0.929-0.355c0.368,0,0.678,0.119,0.928,0.355C46.911,18.368,47.036,18.67,47.036,19.039z M46.799,31.498
			h-2.132v-9.596h2.132V31.498z"/> <path fill="#FFFFFF" d="M58.29,19.987h-3.811v11.511h-2.133V19.987h-3.791V18.19h9.734V19.987z"/> <path fill="#FFFFFF" d="M67.155,31.498H65.28l-0.119-1.461h-0.039c-0.671,1.119-1.685,1.678-3.041,1.678
			c-0.947,0-1.704-0.297-2.271-0.889c-0.671-0.725-1.007-1.816-1.007-3.277v-5.647h2.133v5.292c0,1.844,0.632,2.764,1.896,2.764
			c0.947,0,1.605-0.461,1.975-1.381c0.092-0.238,0.138-0.508,0.138-0.811v-5.864h2.133v6.831
			C67.077,29.641,67.103,30.562,67.155,31.498z"/> <path fill="#FFFFFF" d="M78.39,31.498h-2.133v-5.496c0-1.693-0.645-2.541-1.935-2.541c-0.632,0-1.146,0.234-1.54,0.699
			c-0.395,0.467-0.593,1.016-0.593,1.645v5.693h-2.132v-6.852c0-0.842-0.026-1.758-0.079-2.745h1.876l0.099,1.5h0.059
			c0.25-0.467,0.619-0.854,1.106-1.158c0.579-0.36,1.224-0.54,1.935-0.54c0.896,0,1.639,0.289,2.231,0.868
			c0.736,0.711,1.105,1.771,1.105,3.18V31.498z"/> <path fill="#FFFFFF" d="M89.269,26.246c0,0.381-0.026,0.703-0.079,0.967h-6.396c0.025,0.947,0.335,1.672,0.928,2.172
			c0.539,0.447,1.237,0.672,2.093,0.672c0.947,0,1.81-0.152,2.587-0.455l0.335,1.48c-0.908,0.396-1.981,0.594-3.218,0.594
			c-1.488,0-2.656-0.438-3.505-1.314c-0.849-0.875-1.273-2.049-1.273-3.523c0-1.447,0.395-2.652,1.185-3.613
			c0.829-1.027,1.948-1.54,3.356-1.54c1.382,0,2.429,0.512,3.14,1.54C88.985,24.041,89.269,25.049,89.269,26.246z M87.235,25.693
			c0.013-0.633-0.126-1.178-0.415-1.639c-0.368-0.594-0.935-0.889-1.698-0.889c-0.697,0-1.264,0.289-1.697,0.869
			c-0.355,0.459-0.566,1.014-0.632,1.658H87.235z"/> <path fill="#FFFFFF" d="M97.541,28.74c0,0.893-0.329,1.609-0.987,2.146c-0.658,0.539-1.566,0.809-2.725,0.809
			c-1.093,0-2.021-0.217-2.784-0.652l0.454-1.578c0.737,0.447,1.521,0.67,2.35,0.67c1.092,0,1.639-0.4,1.639-1.203
			c0-0.355-0.118-0.648-0.355-0.879s-0.658-0.457-1.264-0.682c-1.711-0.633-2.566-1.553-2.566-2.764c0-0.83,0.315-1.521,0.947-2.074
			c0.632-0.552,1.468-0.829,2.508-0.829c0.947,0,1.757,0.193,2.429,0.581l-0.454,1.531c-0.619-0.367-1.271-0.553-1.955-0.553
			c-0.447,0-0.797,0.105-1.046,0.316c-0.251,0.209-0.376,0.479-0.376,0.807s0.132,0.598,0.396,0.809
			c0.224,0.197,0.658,0.412,1.303,0.648C96.711,26.475,97.541,27.439,97.541,28.74z"/> </g> <g> <g> <path fill="#FFFFFF" d="M48.67,8.925c0,0.577-0.171,1.039-0.512,1.386c-0.44,0.453-1.082,0.679-1.925,0.679
				c-0.248,0-0.44-0.015-0.577-0.046v2.427h-1.004V7.186c0.479-0.087,1.025-0.13,1.641-0.13c0.795,0,1.395,0.171,1.799,0.512
				C48.477,7.902,48.67,8.355,48.67,8.925z M47.665,8.972c0-0.366-0.117-0.646-0.352-0.842s-0.562-0.293-0.981-0.293
				c-0.277,0-0.503,0.019-0.676,0.056v2.25c0.142,0.037,0.336,0.056,0.583,0.056c0.444,0,0.793-0.108,1.047-0.325
				C47.539,9.657,47.665,9.356,47.665,8.972z"/> <path fill="#FFFFFF" d="M52.212,9.734c-0.1-0.019-0.204-0.028-0.316-0.028c-0.354,0-0.626,0.133-0.818,0.4
				c-0.167,0.235-0.251,0.533-0.251,0.893v2.372h-1.004l0.009-3.097c0-0.521-0.013-0.995-0.037-1.423h0.874l0.037,0.865h0.028
				C50.839,9.418,51.006,9.18,51.235,9c0.224-0.161,0.465-0.242,0.726-0.242c0.093,0,0.177,0.006,0.251,0.019V9.734z"/> <path fill="#FFFFFF" d="M56.881,10.897c0,0.18-0.013,0.332-0.037,0.456H53.83c0.013,0.446,0.158,0.788,0.438,1.023
				c0.254,0.211,0.583,0.316,0.985,0.316c0.446,0,0.853-0.071,1.219-0.214l0.158,0.697c-0.428,0.186-0.934,0.279-1.517,0.279
				c-0.7,0-1.25-0.206-1.65-0.618c-0.399-0.412-0.6-0.966-0.6-1.66c0-0.682,0.186-1.249,0.558-1.702
				c0.391-0.484,0.918-0.726,1.581-0.726c0.651,0,1.145,0.242,1.479,0.726C56.747,9.858,56.881,10.333,56.881,10.897z
				 M55.923,10.636c0.006-0.297-0.059-0.555-0.195-0.771c-0.174-0.279-0.44-0.419-0.8-0.419c-0.329,0-0.595,0.137-0.8,0.409
				c-0.167,0.217-0.267,0.478-0.298,0.781H55.923z"/> <path fill="#FFFFFF" d="M59.968,11.231h-2.315v-0.707h2.315V11.231z"/> <path fill="#FFFFFF" d="M65.195,11.074c0,0.694-0.198,1.265-0.596,1.711c-0.415,0.459-0.967,0.688-1.655,0.688
				c-0.663,0-1.191-0.22-1.585-0.661c-0.395-0.44-0.591-0.995-0.591-1.665c0-0.701,0.203-1.274,0.609-1.721
				c0.405-0.446,0.953-0.669,1.641-0.669c0.664,0,1.197,0.22,1.6,0.66C65.003,9.846,65.195,10.398,65.195,11.074z M64.153,11.106
				c0-0.417-0.09-0.774-0.27-1.072c-0.211-0.361-0.512-0.541-0.902-0.541c-0.402,0-0.71,0.18-0.92,0.541
				c-0.181,0.298-0.271,0.662-0.271,1.091c0,0.417,0.09,0.774,0.271,1.073c0.217,0.361,0.521,0.541,0.911,0.541
				c0.384,0,0.685-0.184,0.902-0.55C64.061,11.883,64.153,11.522,64.153,11.106z"/> <path fill="#FFFFFF" d="M68.636,9.734c-0.1-0.019-0.204-0.028-0.316-0.028c-0.354,0-0.626,0.133-0.818,0.4
				c-0.167,0.235-0.251,0.533-0.251,0.893v2.372h-1.004l0.009-3.097c0-0.521-0.013-0.995-0.037-1.423h0.874l0.037,0.865h0.028
				C67.263,9.418,67.43,9.18,67.659,9c0.224-0.161,0.465-0.242,0.726-0.242c0.093,0,0.177,0.006,0.251,0.019V9.734z"/> <path fill="#FFFFFF" d="M73.603,13.371h-0.894l-0.046-0.726h-0.028c-0.285,0.552-0.769,0.828-1.45,0.828
				c-0.546,0-0.999-0.214-1.358-0.642s-0.539-0.982-0.539-1.665c0-0.731,0.195-1.324,0.586-1.776
				c0.378-0.421,0.843-0.632,1.395-0.632c0.607,0,1.032,0.205,1.274,0.614h0.019V6.777h1.005v5.375
				C73.565,12.593,73.577,12.999,73.603,13.371z M72.561,11.464v-0.753c0-0.13-0.01-0.236-0.028-0.316
				c-0.056-0.242-0.177-0.445-0.364-0.609c-0.187-0.165-0.41-0.247-0.672-0.247c-0.374,0-0.668,0.149-0.883,0.446
				c-0.215,0.298-0.322,0.679-0.322,1.144c0,0.446,0.104,0.809,0.309,1.088c0.218,0.298,0.511,0.446,0.878,0.446
				c0.329,0,0.594-0.124,0.794-0.372C72.464,12.062,72.561,11.787,72.561,11.464z"/> <path fill="#FFFFFF" d="M78.735,10.897c0,0.18-0.013,0.332-0.037,0.456h-3.014c0.013,0.446,0.158,0.788,0.438,1.023
				c0.254,0.211,0.583,0.316,0.985,0.316c0.446,0,0.853-0.071,1.219-0.214l0.158,0.697c-0.428,0.186-0.934,0.279-1.517,0.279
				c-0.7,0-1.25-0.206-1.65-0.618c-0.399-0.412-0.6-0.966-0.6-1.66c0-0.682,0.186-1.249,0.558-1.702
				c0.391-0.484,0.918-0.726,1.581-0.726c0.651,0,1.145,0.242,1.479,0.726C78.602,9.858,78.735,10.333,78.735,10.897z
				 M77.777,10.636c0.006-0.297-0.059-0.555-0.195-0.771c-0.174-0.279-0.44-0.419-0.8-0.419c-0.329,0-0.595,0.137-0.8,0.409
				c-0.167,0.217-0.267,0.478-0.298,0.781H77.777z"/> <path fill="#FFFFFF" d="M82.25,9.734c-0.1-0.019-0.204-0.028-0.316-0.028c-0.354,0-0.626,0.133-0.818,0.4
				c-0.167,0.235-0.251,0.533-0.251,0.893v2.372H79.86l0.009-3.097c0-0.521-0.013-0.995-0.037-1.423h0.874l0.037,0.865h0.028
				C80.877,9.418,81.044,9.18,81.273,9c0.224-0.161,0.465-0.242,0.726-0.242c0.093,0,0.177,0.006,0.251,0.019V9.734z"/> <path fill="#FFFFFF" d="M89.708,11.074c0,0.694-0.198,1.265-0.596,1.711c-0.415,0.459-0.967,0.688-1.655,0.688
				c-0.663,0-1.191-0.22-1.585-0.661c-0.395-0.44-0.591-0.995-0.591-1.665c0-0.701,0.203-1.274,0.609-1.721
				c0.405-0.446,0.953-0.669,1.641-0.669c0.664,0,1.197,0.22,1.6,0.66C89.516,9.846,89.708,10.398,89.708,11.074z M88.666,11.106
				c0-0.417-0.09-0.774-0.27-1.072c-0.211-0.361-0.512-0.541-0.902-0.541c-0.402,0-0.71,0.18-0.92,0.541
				c-0.181,0.298-0.271,0.662-0.271,1.091c0,0.417,0.09,0.774,0.271,1.073c0.217,0.361,0.521,0.541,0.911,0.541
				c0.384,0,0.685-0.184,0.902-0.55C88.573,11.883,88.666,11.522,88.666,11.106z"/> <path fill="#FFFFFF" d="M94.776,13.371h-1.004v-2.588c0-0.798-0.304-1.197-0.911-1.197c-0.298,0-0.54,0.11-0.726,0.33
				c-0.187,0.219-0.279,0.478-0.279,0.774v2.681h-1.004v-3.227c0-0.397-0.013-0.828-0.038-1.293h0.884l0.047,0.707h0.027
				c0.118-0.219,0.292-0.401,0.521-0.545c0.272-0.169,0.576-0.254,0.911-0.254c0.422,0,0.771,0.136,1.051,0.409
				c0.348,0.335,0.521,0.834,0.521,1.497V13.371z"/> </g> </g> </g> </symbol><symbol viewBox="0 0 44 15" id="shape-itunes"><title>itunes</title> <g> <path fill="#FFFFFF" d="M43.664,13.225c0,0.795-0.643,1.438-1.438,1.438H1.774c-0.795,0-1.44-0.643-1.44-1.438V1.771
		c0-0.793,0.645-1.438,1.44-1.438h40.453c0.795,0,1.438,0.645,1.438,1.438L43.664,13.225L43.664,13.225z"/> <path fill="#A6A6A6" d="M42.227,14.996H1.774C0.796,14.996,0,14.202,0,13.225V1.772C0,0.795,0.796,0,1.774,0h40.453
		C43.203,0,44,0.795,44,1.772v11.453C44,14.202,43.203,14.996,42.227,14.996L42.227,14.996z"/> <path d="M43.664,13.225c0,0.795-0.643,1.438-1.438,1.438H1.774c-0.795,0-1.44-0.643-1.44-1.438V1.771
		c0-0.793,0.645-1.438,1.44-1.438h40.453c0.795,0,1.438,0.645,1.438,1.438L43.664,13.225L43.664,13.225z"/> <g> <path fill="#FFFFFF" d="M8.762,3.946c0,0.213-0.07,0.385-0.209,0.517c-0.14,0.132-0.319,0.198-0.539,0.198
			c-0.198,0-0.365-0.068-0.501-0.204C7.377,4.322,7.31,4.151,7.31,3.946c0-0.205,0.069-0.374,0.209-0.506
			C7.657,3.308,7.83,3.242,8.035,3.242S8.413,3.308,8.553,3.44C8.691,3.572,8.762,3.741,8.762,3.946z M8.629,10.887H7.441V5.541
			h1.188V10.887z"/> <path fill="#FFFFFF" d="M15.043,4.474h-2.134v6.413h-1.188V4.474H9.608V3.473h5.435V4.474z"/> <path fill="#FFFFFF" d="M19.971,10.887h-1.045l-0.066-0.812h-0.021c-0.374,0.624-0.939,0.935-1.694,0.935
			c-0.528,0-0.95-0.164-1.265-0.493c-0.374-0.404-0.562-1.014-0.562-1.826V5.541h1.188v2.948c0,1.026,0.352,1.54,1.056,1.54
			c0.528,0,0.895-0.258,1.1-0.771c0.052-0.133,0.077-0.282,0.077-0.45V5.541h1.188v3.807C19.927,9.854,19.941,10.367,19.971,10.887z
			"/> <path fill="#FFFFFF" d="M26.24,10.887h-1.188V7.818c0-0.946-0.358-1.419-1.077-1.419c-0.353,0-0.639,0.13-0.857,0.39
			c-0.221,0.261-0.33,0.567-0.33,0.918v3.179h-1.188V7.07c0-0.469-0.015-0.979-0.044-1.529H22.6l0.057,0.825h0.031
			c0.141-0.257,0.346-0.469,0.617-0.638c0.321-0.198,0.682-0.297,1.077-0.297c0.499,0,0.913,0.162,1.243,0.484
			c0.41,0.396,0.616,0.986,0.616,1.771L26.24,10.887L26.24,10.887z"/> <path fill="#FFFFFF" d="M32.29,7.961c0,0.212-0.017,0.393-0.045,0.539h-3.563c0.016,0.527,0.188,0.932,0.518,1.211
			c0.301,0.248,0.689,0.373,1.166,0.373c0.527,0,1.009-0.084,1.441-0.253l0.187,0.825c-0.507,0.22-1.104,0.33-1.793,0.33
			c-0.828,0-1.479-0.244-1.952-0.731s-0.709-1.142-0.709-1.964c0-0.807,0.22-1.478,0.659-2.013c0.462-0.572,1.086-0.858,1.87-0.858
			c0.771,0,1.354,0.286,1.748,0.858C32.132,6.733,32.29,7.294,32.29,7.961z M31.156,7.653c0.008-0.352-0.069-0.656-0.23-0.913
			c-0.205-0.33-0.521-0.495-0.945-0.495c-0.39,0-0.705,0.162-0.946,0.484c-0.197,0.257-0.315,0.565-0.353,0.924H31.156z"/> <path fill="#FFFFFF" d="M36.898,9.348c0,0.498-0.184,0.898-0.551,1.199c-0.365,0.301-0.873,0.45-1.518,0.45
			c-0.609,0-1.126-0.121-1.551-0.362l0.253-0.881c0.409,0.25,0.847,0.375,1.309,0.375c0.608,0,0.913-0.225,0.913-0.672
			c0-0.197-0.066-0.361-0.197-0.489c-0.133-0.128-0.367-0.255-0.705-0.38c-0.953-0.352-1.43-0.865-1.43-1.54
			c0-0.462,0.176-0.847,0.528-1.155c0.352-0.308,0.817-0.462,1.396-0.462c0.528,0,0.979,0.106,1.354,0.319l-0.253,0.847
			c-0.346-0.205-0.709-0.308-1.09-0.308c-0.25,0-0.443,0.059-0.584,0.176c-0.139,0.117-0.209,0.268-0.209,0.451
			c0,0.184,0.074,0.334,0.222,0.451c0.124,0.11,0.366,0.231,0.726,0.363C36.438,8.082,36.898,8.621,36.898,9.348z"/> </g> </g> </symbol><symbol viewBox="0 0 98.229 98.228" id="shape-reverbnation"><title>reverbnation</title> <g> <path d="M18.371,96.006c1.368-4.229,2.663-8.253,3.968-12.272c2.453-7.554,4.895-15.111,7.388-22.652
		c0.29-0.873,0.051-1.279-0.639-1.775c-9.41-6.773-18.799-13.577-28.193-20.373C0.589,38.712,0.285,38.489,0,38.004
		c0.853,0,1.704,0,2.556,0c11.063,0,22.128-0.016,33.192,0.025c1.103,0.003,1.572-0.318,1.916-1.391
		c3.577-11.165,7.215-22.31,10.839-33.459c0.082-0.252,0.191-0.495,0.372-0.957c0.191,0.486,0.333,0.805,0.442,1.135
		c3.676,11.092,7.366,22.179,10.996,33.287c0.348,1.065,0.827,1.387,1.929,1.384C73.764,38,85.288,38.029,96.811,38.042
		c0.375,0,0.746,0,1.418,0c-0.526,0.417-0.828,0.674-1.147,0.906c-9.353,6.788-18.694,13.59-28.079,20.334
		c-0.943,0.679-1.127,1.217-0.762,2.322c3.645,11.022,7.221,22.065,10.816,33.104c0.103,0.314,0.191,0.633,0.371,1.214
		c-0.582-0.404-0.949-0.651-1.306-0.91c-9.28-6.756-18.569-13.503-27.827-20.29c-0.872-0.639-1.448-0.691-2.36-0.027
		c-9.528,6.934-19.096,13.816-28.654,20.713C19.046,95.578,18.797,95.727,18.371,96.006z"/> </g>                </symbol><symbol viewBox="0 0 512 512" id="shape-soundcloud"><title>soundcloud</title> <path d="M445.98 257.102c-9.043 0-17.674 1.76-25.532 4.928-5.253-57.179-55.145-102.030-116-102.030-14.893 0-29.341 2.815-42.159 7.582-4.98 1.851-6.289 3.76-6.289 7.458v201.357c0 3.883 3.12 7.117 7.062 7.498 0.168 0.017 181.768 0.105 182.945 0.105 36.452 0 65.993-28.408 65.993-63.447s-29.567-63.451-66.020-63.451zM200 384h16l8-112.11-8-111.89h-16l-8 111.89zM152 384h-16l-8-81.375 8-78.625h16l8 80zM72 384h16l8-64-8-64h-16l-8 64zM8 352h16l8-32-8-32h-16l-8 32z"/> </symbol><symbol viewBox="0 0 28 28" id="shape-spotify"><title>spotify</title> <path fill="#FFFFFF" d="M17.609 18.906q0-0.5-0.469-0.797-3.016-1.797-6.984-1.797-2.078 0-4.484 0.531-0.656 0.141-0.656 0.812 0 0.313 0.211 0.539t0.555 0.227q0.078 0 0.578-0.125 2.063-0.422 3.797-0.422 3.531 0 6.203 1.609 0.297 0.172 0.516 0.172 0.297 0 0.516-0.211t0.219-0.539zM19.109 15.547q0-0.625-0.547-0.953-3.703-2.203-8.563-2.203-2.391 0-4.734 0.656-0.75 0.203-0.75 1 0 0.391 0.273 0.664t0.664 0.273q0.109 0 0.578-0.125 1.906-0.516 3.922-0.516 4.359 0 7.625 1.937 0.375 0.203 0.594 0.203 0.391 0 0.664-0.273t0.273-0.664zM20.797 11.672q0-0.734-0.625-1.094-1.969-1.141-4.578-1.727t-5.359-0.586q-3.187 0-5.688 0.734-0.359 0.109-0.602 0.398t-0.242 0.758q0 0.484 0.32 0.812t0.805 0.328q0.172 0 0.625-0.125 2.078-0.578 4.797-0.578 2.484 0 4.836 0.531t3.961 1.484q0.328 0.187 0.625 0.187 0.453 0 0.789-0.32t0.336-0.805zM24 14q0 3.266-1.609 6.023t-4.367 4.367-6.023 1.609-6.023-1.609-4.367-4.367-1.609-6.023 1.609-6.023 4.367-4.367 6.023-1.609 6.023 1.609 4.367 4.367 1.609 6.023z"/> </symbol><symbol viewBox="0 0 16.002 16" id="shape-twitter"><title>twitter</title> <path d="M16.001,3.038c-0.589,0.261-1.221,0.438-1.885,0.517c0.678-0.406,1.197-1.05,1.443-1.815
	c-0.635,0.376-1.338,0.649-2.086,0.797C12.875,1.898,12.022,1.5,11.078,1.5c-1.813,0-3.283,1.47-3.283,3.282
	c0,0.257,0.029,0.508,0.085,0.748C5.152,5.393,2.733,4.086,1.114,2.1C0.831,2.584,0.67,3.148,0.67,3.75
	c0,1.139,0.58,2.144,1.46,2.732C1.592,6.464,1.086,6.316,0.643,6.07v0.041c0,1.59,1.132,2.917,2.633,3.219
	C3.001,9.404,2.711,9.445,2.411,9.445c-0.212,0-0.417-0.021-0.618-0.06c0.418,1.304,1.63,2.253,3.066,2.28
	c-1.123,0.88-2.539,1.404-4.077,1.404c-0.265,0-0.526-0.016-0.783-0.045C1.452,13.956,3.177,14.5,5.031,14.5
	c6.038,0,9.34-5.002,9.34-9.34L14.36,4.735C15.004,4.274,15.562,3.696,16.001,3.038z"/> </symbol><symbol viewBox="0 0 16 16" id="shape-youtube"><title>youtube</title> <path fill="#FFFFFF" d="M13 2h-10c-1.65 0-3 1.35-3 3v6c0 1.65 1.35 3 3 3h10c1.65 0 3-1.35 3-3v-6c0-1.65-1.35-3-3-3zM6 12v-8l5 4-5 4z"/> </symbol></svg>